<svg focusable="false" class="icon icon--bank-transfer-payment-icon   " viewBox="0 0 38 24" fill="none" xmlns="http://www.w3.org/2000/svg"><rect x="0.5" y="0.5" width="37" height="23" rx="2.5" fill="white"/><path d="M6.86075 16.2185V18.875H8.00475V16.2185H8.97275V15.2175H5.93125V16.2185H6.86075ZM9.30305 15.2175V18.875H10.447V17.5275H10.4965C10.612 17.5275 10.6945 17.5605 10.744 17.676L11.2225 18.875H12.4545L11.8495 17.5055C11.778 17.346 11.7065 17.236 11.5965 17.1755C11.9045 17.0325 12.1465 16.675 12.1465 16.2735C12.1465 15.4705 11.547 15.2175 10.667 15.2175H9.30305ZM10.667 16.7355H10.447V16.103H10.656C10.876 16.103 10.9805 16.1855 10.9805 16.4C10.9805 16.6145 10.865 16.7355 10.667 16.7355ZM13.5887 15.2175L12.4227 18.875H13.5337L13.7317 18.226H14.6942L14.8867 18.875H16.0967L14.8482 15.2175H13.5887ZM14.5127 17.401H13.9132L14.1937 16.29H14.2267L14.5127 17.401ZM16.3338 15.2175V18.875H17.4613V17.2415H17.4833L18.4898 18.875H19.4633V15.2175H18.3303V16.8125H18.3138L17.3458 15.2175H16.3338ZM21.147 18.941C21.983 18.941 22.61 18.523 22.61 17.7255C22.61 16.9775 22.06 16.752 21.565 16.587C21.2735 16.4935 21.07 16.422 21.07 16.268C21.07 16.1635 21.147 16.1085 21.279 16.1085C21.4935 16.1085 21.796 16.2625 22.0875 16.466L22.676 15.718C22.324 15.3605 21.8015 15.1515 21.268 15.1515C20.4815 15.1515 19.8765 15.5695 19.8765 16.356C19.8765 17.115 20.476 17.357 20.9325 17.489C21.2075 17.5715 21.378 17.6265 21.378 17.775C21.378 17.9015 21.2955 17.9565 21.147 17.9565C20.8885 17.9565 20.3715 17.7805 20.091 17.61L19.717 18.545C19.981 18.721 20.5915 18.941 21.147 18.941ZM22.9886 15.2175V18.875H24.1326V17.5715H25.3811V16.5705H24.1326V16.2185H25.6396V15.2175H22.9886ZM26.034 15.2175V18.875H28.597V17.874H27.178V17.5055H28.3605V16.5155H27.178V16.2185H28.5585V15.2175H26.034ZM29.0096 15.2175V18.875H30.1536V17.5275H30.2031C30.3186 17.5275 30.4011 17.5605 30.4506 17.676L30.9291 18.875H32.1611L31.5561 17.5055C31.4846 17.346 31.4131 17.236 31.3031 17.1755C31.6111 17.0325 31.8531 16.675 31.8531 16.2735C31.8531 15.4705 31.2536 15.2175 30.3736 15.2175H29.0096ZM30.3736 16.7355H30.1536V16.103H30.3626C30.5826 16.103 30.6871 16.1855 30.6871 16.4C30.6871 16.6145 30.5716 16.7355 30.3736 16.7355Z" fill="#1E4E37"/><path d="M5.57338 5.81V13.125H8.40038C10.4024 13.125 11.5024 12.267 11.5024 10.793C11.5024 9.979 11.1174 9.429 10.2814 9.154C10.7874 8.857 11.1394 8.318 11.1394 7.603C11.1394 6.217 9.99538 5.81 8.59838 5.81H5.57338ZM8.19138 8.615H7.86138V7.46H8.25738C8.57638 7.46 8.81838 7.603 8.81838 8.021C8.81838 8.329 8.62038 8.615 8.19138 8.615ZM8.33438 11.409H7.86138V10.199H8.37838C8.81838 10.199 9.07138 10.364 9.07138 10.771C9.07138 11.178 8.88438 11.409 8.33438 11.409ZM13.9836 5.81L11.6516 13.125H13.8736L14.2696 11.827H16.1946L16.5796 13.125H18.9996L16.5026 5.81H13.9836ZM15.8316 10.177H14.6326L15.1936 7.955H15.2596L15.8316 10.177ZM19.4738 5.81V13.125H21.7288V9.858H21.7728L23.7858 13.125H25.7328V5.81H23.4668V9H23.4338L21.4978 5.81H19.4738ZM26.7462 5.81V13.125H29.0232V11.332L29.3752 10.804L30.4642 13.125H33.0602L30.8932 8.989L32.9502 5.81H30.4642L29.0562 8.12H29.0232V5.81H26.7462Z" fill="#1E4E37"/><rect x="0.5" y="0.5" width="37" height="23" rx="2.5" stroke="#E2E1DB"/></svg>