<svg focusable="false" class="icon icon--cod-payment-icon   " viewBox="0 0 38 24" fill="none" xmlns="http://www.w3.org/2000/svg"><rect x="0.5" y="0.5" width="37" height="23" rx="2.5" fill="white"/><path d="M12.3132 14.2C12.2572 14.074 12.1592 14.032 12.0472 14.088C11.5292 14.382 11.0252 14.48 10.4232 14.48C9.1632 14.48 8.3232 13.556 8.3232 12.17C8.3232 10.784 9.1632 9.86 10.4232 9.86C11.0252 9.86 11.5292 9.958 12.0472 10.252C12.1592 10.308 12.2572 10.266 12.3132 10.14L13.2372 8.194C13.2792 8.096 13.2232 7.998 13.1112 7.942C12.2992 7.438 11.2072 7.13 10.1712 7.13C7.2872 7.13 5.3552 9.146 5.3552 12.17C5.3552 15.194 7.2872 17.21 10.1712 17.21C11.2072 17.21 12.2992 16.902 13.1112 16.398C13.2232 16.342 13.2792 16.244 13.2372 16.146L12.3132 14.2ZM18.4072 17.196C15.4252 17.196 13.4372 15.18 13.4372 12.17C13.4372 9.132 15.4252 7.116 18.4072 7.116C21.3892 7.116 23.3772 9.132 23.3772 12.17C23.3772 15.18 21.3892 17.196 18.4072 17.196ZM18.4072 9.944C17.2592 9.944 16.4892 10.84 16.4892 12.17C16.4892 13.5 17.2592 14.396 18.4072 14.396C19.5552 14.396 20.3252 13.5 20.3252 12.17C20.3252 10.84 19.5552 9.944 18.4072 9.944ZM24.451 7.34C24.353 7.34 24.255 7.438 24.255 7.55V16.79C24.255 16.902 24.353 17 24.451 17H27.699C30.667 17 32.641 15.054 32.641 12.17C32.641 9.258 30.667 7.34 27.699 7.34H24.451ZM27.139 14.48V9.86H27.867C28.945 9.86 29.673 10.784 29.673 12.17C29.673 13.556 28.945 14.48 27.867 14.48H27.139Z" fill="#EA6321"/><rect x="0.5" y="0.5" width="37" height="23" rx="2.5" stroke="#E2E1DB"/></svg>