<svg focusable="false" class="icon icon--momo-payment-icon   " viewBox="0 0 38 24" fill="none" xmlns="http://www.w3.org/2000/svg"><rect x="0.5" y="0.5" width="37" height="23" rx="2.5" fill="white"/><path d="M24.1624 4.03833C22.0427 4.03833 20.3247 5.6464 20.3247 7.63006C20.3247 9.61402 22.0427 11.2222 24.1624 11.2222C26.2819 11.2222 28 9.61402 28 7.63006C28 5.6464 26.2819 4.03833 24.1624 4.03833ZM24.1624 9.16309C23.2632 9.16309 22.5325 8.47938 22.5325 7.63782C22.5325 6.79617 23.2632 6.11236 24.1624 6.11236C25.0615 6.11236 25.7922 6.79617 25.7922 7.63782C25.7922 8.47938 25.0615 9.16329 24.1624 9.16329V9.16309ZM19.2168 11.23H17.0089V6.71357C17.0089 6.37539 16.7198 6.10519 16.3587 6.10519C15.9974 6.10519 15.7083 6.37539 15.7083 6.71357V11.23H13.5006V6.71357C13.5006 6.37539 13.2117 6.10519 12.8504 6.10519C12.4891 6.10519 12.1999 6.37539 12.1999 6.71357V11.23H10V6.73606C10 5.24821 11.2926 4.03833 12.8822 4.03833C13.5325 4.03833 14.1267 4.24126 14.6084 4.57931C15.1645 4.21865 15.7399 4.03833 16.3345 4.03833C17.9241 4.03833 19.2168 5.24821 19.2168 6.73606V11.23ZM24.1624 12.7779C22.0427 12.7779 20.3247 14.3859 20.3247 16.3696C20.3247 18.3536 22.0427 19.9618 24.1624 19.9618C26.2819 19.9616 28 18.3534 28 16.3696C28 14.3859 26.2819 12.7777 24.1624 12.7777V12.7779ZM16.3345 12.7696C17.9241 12.7696 19.2168 13.9794 19.2168 15.4673V19.9612H17.0089V15.4449C17.0089 15.1066 16.7198 14.8364 16.3587 14.8364C15.9974 14.8364 15.7083 15.1066 15.7083 15.4449V19.9612H13.5006V15.4449C13.5006 15.1066 13.2117 14.8364 12.8504 14.8364C12.4891 14.8364 12.1999 15.1066 12.1999 15.4449V19.9612H10V15.4673C10 13.9794 11.2926 12.7696 12.8822 12.7696C13.5325 12.7696 14.1267 12.9726 14.6084 13.3106C15.1645 12.9499 15.7399 12.7696 16.3345 12.7696ZM24.1624 14.8518C25.0615 14.8518 25.7922 15.5357 25.7922 16.3774C25.7922 17.2189 25.0615 17.9027 24.1624 17.9027C23.2632 17.9027 22.5325 17.2189 22.5325 16.3774C22.5325 15.5357 23.2632 14.8518 24.1624 14.8518Z" fill="#A50064"/><rect x="0.5" y="0.5" width="37" height="23" rx="2.5" stroke="#E3E4E4"/></svg>