<svg xmlns="http://www.w3.org/2000/svg" fill="none" focusable="false" class="icon icon--picto-lock   " viewBox="0 0 24 24"><path fill-rule="evenodd" clip-rule="evenodd" d="M12 17C13.1046 17 14 16.1046 14 15C14 13.8954 13.1046 13 12 13C10.8954 13 10 13.8954 10 15C10 16.1046 10.8954 17 12 17Z" stroke="transparent" stroke-width="1.3" stroke-linecap="round" stroke-linejoin="round"/><path d="M16 8H21V22H3V8H8M16 8C16 8 16 7.6 16 6C16 4 14.5 2 12 2C9.5 2 8 4 8 6C8 7.6 8 8 8 8M16 8H8" stroke="transparent" stroke-width="1.3" stroke-linecap="round" stroke-linejoin="round"/></svg>