<svg xmlns="http://www.w3.org/2000/svg" class="icon icon--picto-virus j-w-5 j-h-5" fill="currentColor" focusable="false" viewBox="0 0 24 24"><path fill-rule="evenodd" clip-rule="evenodd" d="M11.8916 8.14199C12.3334 8.14199 12.6916 7.78382 12.6916 7.34199C12.6916 6.90016 12.3334 6.54199 11.8916 6.54199C11.4498 6.54199 11.0916 6.90016 11.0916 7.34199C11.0916 7.78382 11.4498 8.14199 11.8916 8.14199ZM14.9811 9.246C15.4229 9.246 15.7811 8.88782 15.7811 8.446C15.7811 8.00417 15.4229 7.646 14.9811 7.646C14.5393 7.646 14.1811 8.00417 14.1811 8.446C14.1811 8.88782 14.5393 9.246 14.9811 9.246ZM9.78274 8.446C9.78274 8.88782 9.42457 9.246 8.98274 9.246C8.54091 9.246 8.18274 8.88782 8.18274 8.446C8.18274 8.00417 8.54091 7.646 8.98274 7.646C9.42457 7.646 9.78274 8.00417 9.78274 8.446ZM7.61946 12.6815C8.06129 12.6815 8.41946 12.3234 8.41946 11.8815C8.41946 11.4397 8.06129 11.0815 7.61946 11.0815C7.17763 11.0815 6.81946 11.4397 6.81946 11.8815C6.81946 12.3234 7.17763 12.6815 7.61946 12.6815ZM9.78286 15.5456C9.78286 15.9874 9.42469 16.3456 8.98286 16.3456C8.54103 16.3456 8.18286 15.9874 8.18286 15.5456C8.18286 15.1038 8.54103 14.7456 8.98286 14.7456C9.42469 14.7456 9.78286 15.1038 9.78286 15.5456ZM11.8915 17.412C12.3333 17.412 12.6915 17.0538 12.6915 16.612C12.6915 16.1702 12.3333 15.812 11.8915 15.812C11.4497 15.812 11.0915 16.1702 11.0915 16.612C11.0915 17.0538 11.4497 17.412 11.8915 17.412ZM15.7811 15.5456C15.7811 15.9874 15.4229 16.3456 14.9811 16.3456C14.5393 16.3456 14.1811 15.9874 14.1811 15.5456C14.1811 15.1038 14.5393 14.7456 14.9811 14.7456C15.4229 14.7456 15.7811 15.1038 15.7811 15.5456ZM16.0717 12.6815C16.5135 12.6815 16.8717 12.3234 16.8717 11.8815C16.8717 11.4397 16.5135 11.0815 16.0717 11.0815C15.6298 11.0815 15.2717 11.4397 15.2717 11.8815C15.2717 12.3234 15.6298 12.6815 16.0717 12.6815ZM11.3173 10.5075C11.3173 10.9493 10.9592 11.3075 10.5173 11.3075C10.0755 11.3075 9.71735 10.9493 9.71735 10.5075C9.71735 10.0657 10.0755 9.70752 10.5173 9.70752C10.9592 9.70752 11.3173 10.0657 11.3173 10.5075ZM13.4945 11.3075C13.9363 11.3075 14.2945 10.9493 14.2945 10.5075C14.2945 10.0657 13.9363 9.70752 13.4945 9.70752C13.0527 9.70752 12.6945 10.0657 12.6945 10.5075C12.6945 10.9493 13.0527 11.3075 13.4945 11.3075ZM14.2945 13.4846C14.2945 13.9264 13.9363 14.2846 13.4945 14.2846C13.0527 14.2846 12.6945 13.9264 12.6945 13.4846C12.6945 13.0427 13.0527 12.6846 13.4945 12.6846C13.9363 12.6846 14.2945 13.0427 14.2945 13.4846ZM10.5173 14.2846C10.9592 14.2846 11.3173 13.9264 11.3173 13.4846C11.3173 13.0427 10.9592 12.6846 10.5173 12.6846C10.0755 12.6846 9.71735 13.0427 9.71735 13.4846C9.71735 13.9264 10.0755 14.2846 10.5173 14.2846Z" fill="currentColor"/><path d="M20 12H23M20 12C20 10.5429 19.6104 9.17669 18.9297 8M20 12C20 13.4571 19.6104 14.8233 18.9297 16M12 20V23M12 20C10.5429 20 9.17669 19.6104 8 18.9297M12 20C13.4571 20 14.8233 19.6104 16 18.9297M4 12H1M4 12C4 10.5429 4.38958 9.17669 5.07026 8M4 12C4 13.4571 4.38958 14.8233 5.07026 16M12 4V1H11H13M12 4C13.4571 4 14.8233 4.38958 16 5.07026M12 4C10.5429 4 9.17669 4.38958 8 5.07026M16 5.07026C17.2145 5.77281 18.2272 6.78549 18.9297 8M16 5.07026L17.5 2.5M8 5.07026L6.5 2.5M8 5.07026C6.78549 5.77281 5.77281 6.78549 5.07026 8M6.5 2.5L7.5 2M6.5 2.5L5.5 3M23 12V10.5M23 12V13.5M1 12V10.5M1 12V13.5M12 23H13.5M12 23H10.5M5.07026 8L2.5 6.5M2.5 6.5L3 5.5M2.5 6.5L2 7.5M18.9297 8L21.5 6.5M21.5 6.5L21 5.5M21.5 6.5L22 7.5M17.5 2.5L16.5 2M17.5 2.5L18.5 3M8 18.9297L6.5 21.5M8 18.9297C6.78549 18.2272 5.77281 17.2145 5.07026 16M6.5 21.5L5.5 21M6.5 21.5L7.5 22M16 18.9297L17.5 21.5M16 18.9297C17.2145 18.2272 18.2272 17.2145 18.9297 16M17.5 21.5L16.5 22M17.5 21.5L18.5 21M5.07026 16L2.5 17.5M2.5 17.5L2 16.5M2.5 17.5L3 18.5M18.9297 16L21.5 17.5M21.5 17.5L22 16.5M21.5 17.5L21 18.5" stroke="currentColor" stroke-width="1.3" stroke-linecap="round" stroke-linejoin="round"/></svg>